# xmcd CD database file
#
# Track frame offsets:
#	150
#	94308
#	124760
#	155140
#	204025
#	257010
#
# Disc length: 4114 seconds
#
# Revision: 3
# Processed by: cddbd v1.5.1PL2 Copyright (c) Steve Scherf et al.
# Submitted via: CDex 1.51
#
DISCID=4b101006
DTITLE=ウラディーミル・アシュケナージ(ピアノ) ロリン・マゼール（指揮） キリル・コンドラシン（指揮） - チャイコフスキー：ピアノ協奏曲第1番＆ラフマニノフ：ピアノ協奏曲第2番
DYEAR=1963
DGENRE=Classical
TTITLE0=チャイコフスキー：ピアノ協奏曲第1番第1楽章
TTITLE1=チャイコフスキー：ピアノ協奏曲第1番第2楽章
TTITLE2=チャイコフスキー：ピアノ協奏曲第1番第3楽章
TTITLE3=ラフマニノフ：ピアノ協奏曲第2番第1楽章
TTITLE4=ラフマニノフ：ピアノ協奏曲第2番第2楽章
TTITLE5=ラフマニノフ：ピアノ協奏曲第2番第3楽章
EXTD=YEAR: 1963
EXTT0=
EXTT1=
EXTT2=
EXTT3=
EXTT4=
EXTT5=
PLAYORDER=
